<svg width="228" height="16" viewBox="0 0 228 16" fill="none" xmlns="http://www.w3.org/2000/svg">
<path d="M111.676 14.1591C110.987 14.1591 110.382 13.995 109.862 13.6669C109.344 13.3388 108.94 12.8797 108.648 12.2898C108.36 11.6998 108.216 11.0104 108.216 10.2216C108.216 9.42614 108.36 8.73177 108.648 8.13849C108.94 7.54522 109.344 7.08452 109.862 6.75639C110.382 6.42827 110.987 6.2642 111.676 6.2642C112.366 6.2642 112.969 6.42827 113.486 6.75639C114.006 7.08452 114.411 7.54522 114.699 8.13849C114.991 8.73177 115.136 9.42614 115.136 10.2216C115.136 11.0104 114.991 11.6998 114.699 12.2898C114.411 12.8797 114.006 13.3388 113.486 13.6669C112.969 13.995 112.366 14.1591 111.676 14.1591ZM111.676 13.1051C112.2 13.1051 112.631 12.9709 112.969 12.7024C113.307 12.4339 113.557 12.081 113.719 11.6435C113.882 11.206 113.963 10.732 113.963 10.2216C113.963 9.71117 113.882 9.23556 113.719 8.79474C113.557 8.35393 113.307 7.99763 112.969 7.72585C112.631 7.45407 112.2 7.31818 111.676 7.31818C111.152 7.31818 110.722 7.45407 110.384 7.72585C110.045 7.99763 109.795 8.35393 109.633 8.79474C109.47 9.23556 109.389 9.71117 109.389 10.2216C109.389 10.732 109.47 11.206 109.633 11.6435C109.795 12.081 110.045 12.4339 110.384 12.7024C110.722 12.9709 111.152 13.1051 111.676 13.1051ZM121.74 10.8778V6.36364H122.913V14H121.74V12.7074H121.66C121.481 13.0952 121.203 13.425 120.825 13.6967C120.447 13.9652 119.97 14.0994 119.393 14.0994C118.916 14.0994 118.492 13.995 118.121 13.7862C117.749 13.5741 117.458 13.2559 117.246 12.8317C117.033 12.4041 116.927 11.8655 116.927 11.2159V6.36364H118.101V11.1364C118.101 11.6932 118.256 12.1373 118.568 12.4688C118.883 12.8002 119.284 12.9659 119.771 12.9659C120.063 12.9659 120.359 12.8913 120.661 12.7422C120.966 12.593 121.221 12.3643 121.427 12.0561C121.635 11.7479 121.74 11.3551 121.74 10.8778Z" fill="black"/>
<line x1="0.5" y1="8.5" x2="93.5" y2="8.5" stroke="black"/>
<line x1="134.5" y1="8.5" x2="227.5" y2="8.5" stroke="black"/>
</svg>
