<svg width="100" height="100" viewBox="0 0 100 100" fill="none" xmlns="http://www.w3.org/2000/svg">
<line y1="-0.5" x2="93.4001" y2="-0.5" transform="matrix(0.992292 0.123922 -0.124147 0.992264 3.72711 6.77551)" stroke="#111827"/>
<line x1="4.22711" y1="6.77551" x2="4.22711" y2="96.4074" stroke="#111827"/>
<line x1="3.72711" y1="95.9074" x2="96.4073" y2="95.9074" stroke="#111827"/>
<line x1="96.9073" y1="3.81247" x2="96.9073" y2="96.4074" stroke="#111827"/>
<line x1="3.72711" y1="3.31247" x2="96.4073" y2="3.31247" stroke="#111827"/>
<line y1="-0.5" x2="28.016" y2="-0.5" transform="matrix(0.949429 0.313982 -0.314503 0.949256 3.72711 10.5719)" stroke="#111827"/>
<line y1="-0.5" x2="17.2096" y2="-0.5" transform="matrix(0.990912 0.134511 -0.134754 0.990879 3.72711 53.5359)" stroke="#111827"/>
<line y1="-0.5" x2="37.7106" y2="-0.5" transform="matrix(-0.25314 0.96743 -0.967544 -0.252704 30.3264 19.3684)" stroke="#111827"/>
<line y1="-0.5" x2="85.7008" y2="-0.5" transform="matrix(0.978702 0.205284 -0.205647 0.978626 3.72711 54.7397)" stroke="#111827"/>
<line y1="-0.5" x2="60.4835" y2="-0.5" transform="matrix(-0.234445 0.972129 -0.972228 -0.234038 96.4073 37.6096)" stroke="#111827"/>
<path d="M39.8724 49.6469L35.1457 43.0727L35.1457 36.591L32.458 33.3502L30.328 28.9983L31.1605 25.1093L40.1041 29.932L42.9308 28.1649L48.7697 26.1278L53.6818 25.1093L55.9061 22.2389L58.5011 19.8314L61.8376 18.5351L63.1351 21.4055L63.1351 27.8871L64.618 34.8317L64.618 41.1282M39.8724 49.6469L37.5091 46.3598L34.0336 48.3506L31.1605 50.7581M39.8724 49.6469L41.1699 52.2396L47.1942 52.9803L52.1989 54.8322L55.2573 53.4964L58.5011 51.3136L58.5011 48.9988M58.5011 48.9988L55.9061 47.4247M58.5011 48.9988L62.3937 44.7394M55.9061 47.4247L53.6818 52.9803L48.1209 50.1099M55.9061 47.4247L48.1209 50.1099M48.1209 50.1099L40.1041 50.1099L36.7213 52.2396L32.0873 55.2026M62.3937 44.7394L64.618 41.1282M62.3937 44.7394L68.6959 46.3598L71.9397 46.3598M64.618 41.1282L73.0519 42.0542L75.925 43.0727M64.618 41.1282L70.3642 43.8135L73.0519 48.9988L76.6664 52.2396L87.1393 52.2396L91.866 51.3136L95.7585 38.3504L96.5926 32.1465M96.5926 32.1465L96.5926 3.3958M96.5926 32.1465L87.1393 72.6568L3.77344 55.2026M96.5926 32.1465L87.1393 73.3976L82.3199 96.6176L3.77344 96.6176L3.77344 55.2026M96.5926 3.3958L69.391 3.3958L3.40272 3.39579L3.40272 6.72921M96.5926 3.3958L82.3199 3.3958L96.5926 5.98846L96.5926 18.5351L3.40272 6.72921M96.5926 3.3958L96.5926 96.7315L3.77344 95.9907L3.77344 55.2026M3.40272 6.72921L3.759 53.4964M3.77344 55.2026L3.40272 11.4053L30.328 19.8314L20.4559 55.2026L3.759 53.4964M3.77344 55.2026L3.759 53.4964M3.77344 55.2026L20.4559 58.6954L19.112 55.0653L3.759 53.4964" stroke="#111827"/>
<path d="M39.8724 49.6469L35.1457 43.0727L35.1457 36.591L32.458 33.3502L30.328 28.9983L31.1605 25.1093L40.1041 29.932L42.9308 28.1649L48.7697 26.1278L53.6818 25.1093L55.9061 22.2389L58.5011 19.8314L61.8376 18.5351L63.1351 21.4055L63.1351 27.8871L64.618 34.8317L64.618 41.1282M39.8724 49.6469L37.5091 46.3598L34.0336 48.3506L31.1605 50.7581M39.8724 49.6469L41.1699 52.2396L47.1942 52.9803L52.1989 54.8322L55.2573 53.4964L58.5011 51.3136L58.5011 48.9988M58.5011 48.9988L55.9061 47.4247M58.5011 48.9988L62.3937 44.7394M55.9061 47.4247L53.6818 52.9803L48.1209 50.1099M55.9061 47.4247L48.1209 50.1099M48.1209 50.1099L40.1041 50.1099L36.7213 52.2396L32.0873 55.2026M62.3937 44.7394L64.618 41.1282M62.3937 44.7394L68.6959 46.3598L71.9397 46.3598M64.618 41.1282L73.0519 42.0542L75.925 43.0727M64.618 41.1282L70.3642 43.8135L73.0519 48.9988L76.6664 52.2396M87.1393 52.2396L91.866 51.3136L95.7585 38.3504L96.5926 32.1465M96.5926 32.1465L96.5926 3.3958M96.5926 32.1465L87.1393 72.6568L3.77344 55.2026M96.5926 32.1465L87.1393 73.3976L82.3199 96.6176L3.77344 96.6176L3.77344 55.2026M96.5926 3.3958L69.391 3.3958L3.40272 3.39579L3.40272 6.72921M96.5926 3.3958L82.3199 3.3958L96.5926 5.98846L96.5926 18.5351L3.40272 6.72921M96.5926 3.3958L96.5926 96.7315L3.77344 95.9907L3.77344 55.2026M3.40272 6.72921L3.759 53.4964M3.77344 55.2026L3.40272 11.4053L30.328 19.8314L20.4559 55.2026L3.759 53.4964M3.77344 55.2026L3.759 53.4964M3.77344 55.2026L20.4559 58.6954L19.112 55.0653L3.759 53.4964" stroke="#111827"/>
<path d="M45.2015 45.5265L43.4869 44.9709L42.6065 43.582L42.9308 41.5912L45.5722 41.5912L47.2868 43.2579L47.0088 44.9709L45.2015 45.5265Z" stroke="#111827"/>
<path d="M55.0318 39.7393L55.0318 41.8457L57.0182 42.2857L58.7328 41.2208L59.3815 39.7393L58.7328 37.9337L57.0182 37.9337L55.0318 39.7393Z" stroke="#111827"/>
<path d="M55.8511 39.2495L56.1841 40.7578L57.6206 41.0819L58.0377 40.0634L57.6207 38.6282L56.6475 38.1652" stroke="#111827"/>
<path d="M44.0893 41.6838L43.6723 43.6746L45.4796 44.5542L46.2673 43.6746L45.943 41.6838" stroke="#111827"/>
<path d="M32.2726 31.128L34.8258 34.2035L38.8992 30.1094L35.3774 28.1649L33.7091 26.9149L31.6238 26.3593L31.2531 28.1649L32.2726 31.128Z" stroke="#111827"/>
<path d="M55.7207 28.3038L53.5536 28.0426L54.8402 24.8778L58.2694 21.4981L61.3279 20.3407L62.1156 21.8685L60.8645 26.2204L57.9914 26.2204L55.7207 28.3038Z" stroke="#111827"/>
<path d="M45.645 39.133L43.6259 38.0263L41.865 36.8689L39.8856 36.3342L37.9062 35.7996" stroke="#111827"/>
<path d="M45.7682 39.3984L43.4406 36.1744L40.4854 33.0094" stroke="#111827"/>
<path d="M46.2266 39.3911L44.7844 36.3133L42.8901 33.2798" stroke="#111827"/>
<path d="M54.099 36.7717L54.099 33.4891L54.7478 30.29" stroke="#111827"/>
<path d="M54.103 36.7571L54.8866 34.1836L56.5127 31.4791" stroke="#111827"/>
<path d="M53.7305 36.3279L53.2647 33.6743L52.0622 31.3278" stroke="#111827"/>
</svg>
