<svg width="41" height="40" viewBox="0 0 41 40" fill="none" xmlns="http://www.w3.org/2000/svg">
<circle cx="20.5" cy="20" r="20" fill="#B9211C"/>
<path d="M13 14C13 12.8954 13.8954 12 15 12H17C18.1046 12 19 12.8954 19 14V16C19 17.1046 18.1046 18 17 18H15C13.8954 18 13 17.1046 13 16V14Z" stroke="white" stroke-linecap="round" stroke-linejoin="round"/>
<path d="M23 14C23 12.8954 23.8954 12 25 12H27C28.1046 12 29 12.8954 29 14V16C29 17.1046 28.1046 18 27 18H25C23.8954 18 23 17.1046 23 16V14Z" stroke="white" stroke-linecap="round" stroke-linejoin="round"/>
<path d="M13 24C13 22.8954 13.8954 22 15 22H17C18.1046 22 19 22.8954 19 24V26C19 27.1046 18.1046 28 17 28H15C13.8954 28 13 27.1046 13 26V24Z" stroke="white" stroke-linecap="round" stroke-linejoin="round"/>
<path d="M23 24C23 22.8954 23.8954 22 25 22H27C28.1046 22 29 22.8954 29 24V26C29 27.1046 28.1046 28 27 28H25C23.8954 28 23 27.1046 23 26V24Z" stroke="white" stroke-linecap="round" stroke-linejoin="round"/>
</svg>
