<svg width="40" height="40" viewBox="0 0 40 40" fill="none" xmlns="http://www.w3.org/2000/svg">
<circle cx="20" cy="20" r="20" fill="#347A5F"/>
<path d="M31.0344 11.9656L28.0344 8.9656C27.8886 8.846 27.7036 8.78488 27.5154 8.79413C27.3271 8.80338 27.1489 8.88233 27.0156 9.01563C26.8823 9.14893 26.8034 9.32705 26.7941 9.51534C26.7849 9.70363 26.846 9.88862 26.9656 10.0343L27.1062 10.1656L21.9406 14.0468L18.35 14.7687C18.2062 14.7977 18.0732 14.8658 17.9656 14.9656L10.0344 22.9062C9.82347 23.1146 9.65604 23.3628 9.54177 23.6364C9.42749 23.91 9.36865 24.2035 9.36865 24.5C9.36865 24.7965 9.42749 25.09 9.54177 25.3636C9.65604 25.6371 9.82347 25.8853 10.0344 26.0937L13.9062 29.9656C14.1146 30.1765 14.3628 30.3439 14.6364 30.4582C14.91 30.5725 15.2035 30.6313 15.5 30.6313C15.7965 30.6313 16.09 30.5725 16.3636 30.4582C16.6372 30.3439 16.8853 30.1765 17.0937 29.9656L25.0344 22.0343C25.1341 21.9268 25.2022 21.7938 25.2312 21.65L25.9531 18.0593L29.8344 12.8937L29.9656 13.0343C30.109 13.173 30.3006 13.2504 30.5 13.2504C30.6994 13.2504 30.891 13.173 31.0344 13.0343C31.1752 12.8922 31.2542 12.7001 31.2542 12.5C31.2542 12.2998 31.1752 12.1078 31.0344 11.9656ZM17.75 27.1906L12.8094 22.25L17 18.0593L21.9406 23L17.75 27.1906ZM14.9656 28.9062L11.0937 25.0343C11.0229 24.9646 10.9666 24.8814 10.9282 24.7896C10.8898 24.6979 10.87 24.5994 10.87 24.5C10.87 24.4005 10.8898 24.302 10.9282 24.2103C10.9666 24.1186 11.0229 24.0354 11.0937 23.9656L11.75 23.3093L16.6906 28.25L16.0344 28.9062C15.8922 29.0471 15.7001 29.1261 15.5 29.1261C15.2998 29.1261 15.1078 29.0471 14.9656 28.9062ZM24.65 17.3C24.5855 17.3895 24.5407 17.4918 24.5187 17.6L23.8062 21.1343L23 21.9406L18.0594 17L18.8656 16.1937L22.4 15.4812C22.5082 15.4592 22.6104 15.4145 22.7 15.35L28.175 11.2437L28.7562 11.825L24.65 17.3Z" fill="white"/>
</svg>
