<svg width="32" height="32" viewBox="0 0 32 32" fill="none" xmlns="http://www.w3.org/2000/svg">
<line y1="-0.5" x2="29.888" y2="-0.5" transform="matrix(0.992292 0.123922 -0.124147 0.992264 1.19267 2.16815)" stroke="#111827"/>
<line x1="1.69267" y1="2.16815" x2="1.69267" y2="30.8503" stroke="#111827"/>
<line x1="1.19267" y1="30.3503" x2="30.8503" y2="30.3503" stroke="#111827"/>
<line x1="31.3503" y1="1.21997" x2="31.3503" y2="30.8503" stroke="#111827"/>
<line x1="1.19267" y1="0.719971" x2="30.8503" y2="0.719971" stroke="#111827"/>
<line y1="-0.5" x2="8.96512" y2="-0.5" transform="matrix(0.949429 0.313982 -0.314503 0.949256 1.19267 3.383)" stroke="#111827"/>
<line y1="-0.5" x2="5.50706" y2="-0.5" transform="matrix(0.990912 0.134511 -0.134754 0.990879 1.19267 17.1315)" stroke="#111827"/>
<line y1="-0.5" x2="12.0674" y2="-0.5" transform="matrix(-0.25314 0.96743 -0.967544 -0.252704 9.70444 6.19788)" stroke="#111827"/>
<line y1="-0.5" x2="27.4242" y2="-0.5" transform="matrix(0.978702 0.205284 -0.205647 0.978626 1.19267 17.5167)" stroke="#111827"/>
<line y1="-0.5" x2="19.3547" y2="-0.5" transform="matrix(-0.234445 0.972129 -0.972228 -0.234038 30.8503 12.0351)" stroke="#111827"/>
<path d="M12.7592 15.887L11.2466 13.7833L11.2466 11.7091L10.3866 10.6721L9.70498 9.27944L9.97136 8.03497L12.8333 9.57823L13.7379 9.01278L15.6063 8.36091L17.1782 8.03497L17.89 7.11643L18.7204 6.34605L19.788 5.93122L20.2032 6.84976L20.2033 8.92388L20.6778 11.1462L20.6778 13.161M12.7592 15.887L12.0029 14.8351L10.8907 15.4722L9.97136 16.2426M12.7592 15.887L13.1744 16.7167L15.1021 16.9537L16.7036 17.5463L17.6823 17.1188L18.7204 16.4204L18.7204 15.6796M18.7204 15.6796L17.89 15.1759M18.7204 15.6796L19.966 14.3166M17.89 15.1759L17.1782 16.9537L15.3987 16.0352M17.89 15.1759L15.3987 16.0352M15.3987 16.0352L12.8333 16.0352L11.7508 16.7167L10.2679 17.6648M19.966 14.3166L20.6778 13.161M19.966 14.3166L21.9827 14.8351L23.0207 14.8351M20.6778 13.161L23.3766 13.4573L24.296 13.7833M20.6778 13.161L22.5165 14.0203L23.3766 15.6796L24.5333 16.7167L27.8846 16.7167L29.3971 16.4204L30.6427 12.2721L30.9097 10.2869M30.9097 10.2869L30.9097 1.08666M30.9097 10.2869L27.8846 23.2502L1.20751 17.6648M30.9097 10.2869L27.8846 23.4872L26.3424 30.9176L1.20751 30.9176L1.20751 17.6648M30.9097 1.08666L22.2051 1.08666L1.08888 1.08665L1.08888 2.15335M30.9097 1.08666L26.3424 1.08666L30.9097 1.91631L30.9097 5.93122L1.08888 2.15335M30.9097 1.08666L30.9096 30.9541L1.20751 30.717L1.20751 17.6648M1.08888 2.15335L1.20289 17.1188M1.20751 17.6648L1.08888 3.64968L9.70498 6.34605L6.54589 17.6648L1.20289 17.1188M1.20751 17.6648L1.20289 17.1188M1.20751 17.6648L6.54589 18.7825L6.11585 17.6209L1.20289 17.1188" stroke="#111827"/>
<path d="M14.4645 14.5685L13.9158 14.3907L13.6341 13.9462L13.7379 13.3092L14.5831 13.3092L15.1318 13.8425L15.0428 14.3907L14.4645 14.5685Z" stroke="#111827"/>
<path d="M17.6102 12.7166L17.6102 13.3906L18.2458 13.5314L18.7945 13.1907L19.0021 12.7166L18.7945 12.1388L18.2458 12.1388L17.6102 12.7166Z" stroke="#111827"/>
<path d="M17.8724 12.5598L17.9789 13.0425L18.4386 13.1462L18.5721 12.8203L18.4386 12.361L18.1272 12.2129" stroke="#111827"/>
<path d="M14.1086 13.3388L13.9751 13.9759L14.5535 14.2573L14.8055 13.9759L14.7017 13.3388" stroke="#111827"/>
<path d="M10.3272 9.96094L11.1443 10.9451L12.4478 9.63501L11.3208 9.01277L10.7869 8.61276L10.1196 8.43498L10.001 9.01277L10.3272 9.96094Z" stroke="#111827"/>
<path d="M17.8306 9.05721L17.1371 8.97361L17.5489 7.96089L18.6462 6.87938L19.6249 6.509L19.877 6.9979L19.4766 8.39052L18.5572 8.39052L17.8306 9.05721Z" stroke="#111827"/>
<path d="M14.6064 12.5225L13.9603 12.1684L13.3968 11.798L12.7634 11.6269L12.13 11.4559" stroke="#111827"/>
<path d="M14.6458 12.6075L13.901 11.5758L12.9553 10.563" stroke="#111827"/>
<path d="M14.7925 12.6052L14.331 11.6203L13.7249 10.6496" stroke="#111827"/>
<path d="M17.3117 11.7669L17.3117 10.7165L17.5193 9.6928" stroke="#111827"/>
<path d="M17.3129 11.7623L17.5637 10.9388L18.084 10.0733" stroke="#111827"/>
<path d="M17.1938 11.6249L17.0447 10.7758L16.6599 10.0249" stroke="#111827"/>
<path d="M12.7592 15.887L11.2466 13.7833L11.2466 11.7091L10.3866 10.6721L9.70498 9.27944L9.97136 8.03497L12.8333 9.57823L13.7379 9.01278L15.6063 8.36091L17.1782 8.03497L17.89 7.11643L18.7204 6.34605L19.788 5.93122L20.2032 6.84976L20.2033 8.92388L20.6778 11.1462L20.6778 13.161M12.7592 15.887L12.0029 14.8351L10.8907 15.4722L9.97136 16.2426M12.7592 15.887L13.1744 16.7167L15.1021 16.9537L16.7036 17.5463L17.6823 17.1188L18.7204 16.4204L18.7204 15.6796M18.7204 15.6796L17.89 15.1759M18.7204 15.6796L19.966 14.3166M17.89 15.1759L17.1782 16.9537L15.3987 16.0352M17.89 15.1759L15.3987 16.0352M15.3987 16.0352L12.8333 16.0352L11.7508 16.7167L10.2679 17.6648M19.966 14.3166L20.6778 13.161M19.966 14.3166L21.9827 14.8351L23.0207 14.8351M20.6778 13.161L23.3766 13.4573L24.296 13.7833M20.6778 13.161L22.5165 14.0203L23.3766 15.6796L24.5333 16.7167M27.8846 16.7167L29.3971 16.4204L30.6427 12.2721L30.9097 10.2869M30.9097 10.2869L30.9097 1.08666M30.9097 10.2869L27.8846 23.2502L1.20751 17.6648M30.9097 10.2869L27.8846 23.4872L26.3424 30.9176L1.20751 30.9176L1.20751 17.6648M30.9097 1.08666L22.2051 1.08666L1.08888 1.08665L1.08888 2.15335M30.9097 1.08666L26.3424 1.08666L30.9097 1.91631L30.9097 5.93122L1.08888 2.15335M30.9097 1.08666L30.9096 30.9541L1.20751 30.717L1.20751 17.6648M1.08888 2.15335L1.20289 17.1188M1.20751 17.6648L1.08888 3.64968L9.70498 6.34605L6.54589 17.6648L1.20289 17.1188M1.20751 17.6648L1.20289 17.1188M1.20751 17.6648L6.54589 18.7825L6.11585 17.6209L1.20289 17.1188" stroke="#111827"/>
</svg>
