<svg width="41" height="40" viewBox="0 0 41 40" fill="none" xmlns="http://www.w3.org/2000/svg">
<circle cx="20.5" cy="20" r="20" fill="#B9211C"/>
<path d="M15.5 18.1567C15.5 17.2618 15.7318 16.3821 16.1727 15.6034C16.6135 14.8246 17.2486 14.1733 18.0159 13.7128C18.0534 13.6904 18.0845 13.6586 18.106 13.6206C18.1276 13.5825 18.1389 13.5396 18.1389 13.4959V8.88892H22.3611V13.4959C22.3611 13.5846 22.4076 13.6669 22.4841 13.7123C23.2515 14.1728 23.8866 14.8242 24.3275 15.6031C24.7684 16.3819 25.0001 17.2617 25 18.1567V28.9445C25 29.2244 24.8888 29.4929 24.6908 29.6909C24.4929 29.8888 24.2244 30 23.9444 30H16.5556C16.2756 30 16.0071 29.8888 15.8092 29.6909C15.6112 29.4929 15.5 29.2244 15.5 28.9445V18.1567Z" stroke="white" stroke-width="1.58333" stroke-linecap="round" stroke-linejoin="round"/>
<path d="M18.1389 12.0556H22.3611" stroke="white" stroke-width="1.58333" stroke-linecap="round"/>
<path d="M22.3611 13.1111V11M25 18.9167H20.25V26.8333H25V18.9167ZM25 27.8889V17.8611V27.8889ZM18.1389 13.1111V11V13.1111Z" stroke="white" stroke-width="1.58333" stroke-linecap="round" stroke-linejoin="round"/>
</svg>
