<svg width="41" height="40" viewBox="0 0 41 40" fill="none" xmlns="http://www.w3.org/2000/svg">
<circle cx="20.25" cy="20" r="20" fill="#3365E1"/>
<path d="M12.25 12V28C12.25 28.5304 12.4607 29.0391 12.8358 29.4142C13.2109 29.7893 13.7196 30 14.25 30H26.25C26.7804 30 27.2891 29.7893 27.6642 29.4142C28.0393 29.0391 28.25 28.5304 28.25 28V16.342C28.25 16.0756 28.1967 15.8118 28.0933 15.5662C27.9899 15.3207 27.8385 15.0982 27.648 14.912L23.208 10.57C22.8344 10.2047 22.3326 10.0001 21.81 10H14.25C13.7196 10 13.2109 10.2107 12.8358 10.5858C12.4607 10.9609 12.25 11.4696 12.25 12V12Z" stroke="white" stroke-width="1.7" stroke-linecap="round" stroke-linejoin="round"/>
<path d="M22.25 10V14C22.25 14.5304 22.4607 15.0391 22.8358 15.4142C23.2109 15.7893 23.7196 16 24.25 16H28.25" stroke="white" stroke-width="1.7" stroke-linejoin="round"/>
</svg>
