<svg width="40" height="40" viewBox="0 0 40 40" fill="none" xmlns="http://www.w3.org/2000/svg">
<circle cx="20" cy="20" r="20" fill="#755653"/>
<path d="M16.3971 19.235C16.5922 19.196 16.7637 19.0811 16.8741 18.9156C16.9845 18.7501 17.0246 18.5475 16.9856 18.3525C16.9466 18.1574 16.8317 17.9858 16.6662 17.8755C16.5007 17.7651 16.2982 17.725 16.1031 17.764C15.2001 17.944 14.5181 18.576 14.1551 19.423C13.7951 20.261 13.7421 21.309 14.0231 22.431C14.045 22.5285 14.0862 22.6206 14.1443 22.702C14.2024 22.7834 14.2761 22.8523 14.3612 22.9047C14.4463 22.9572 14.541 22.9921 14.6398 23.0074C14.7385 23.0228 14.8394 23.0182 14.9363 22.994C15.0333 22.9698 15.1245 22.9265 15.2045 22.8666C15.2845 22.8066 15.3517 22.7313 15.4022 22.645C15.4526 22.5588 15.4853 22.4633 15.4984 22.3642C15.5114 22.2651 15.5045 22.1644 15.4781 22.068C15.2581 21.19 15.3301 20.488 15.5331 20.014C15.7331 19.548 16.0511 19.304 16.3971 19.234V19.235ZM13.4711 11.419C13.4284 12.1289 13.5324 12.8401 13.7765 13.5081C14.0206 14.1762 14.3997 14.7868 14.8901 15.302C13.9374 15.5751 13.0846 16.1189 12.4349 16.8672C11.7852 17.6156 11.3667 18.5364 11.2301 19.518C10.9009 21.8732 11.3842 24.2702 12.6001 26.314L12.9501 26.904C12.9634 26.9257 12.9777 26.9467 12.9931 26.967L14.4091 28.873C14.709 29.2769 15.0934 29.6107 15.5354 29.851C15.9775 30.0912 16.4666 30.2323 16.9687 30.2642C17.4708 30.2962 17.9738 30.2184 18.4428 30.0361C18.9117 29.8539 19.3353 29.5716 19.6841 29.209C19.7249 29.1666 19.7738 29.1328 19.8279 29.1098C19.882 29.0867 19.9403 29.0749 19.9991 29.0749C20.0579 29.0749 20.1161 29.0867 20.1703 29.1098C20.2244 29.1328 20.2733 29.1666 20.3141 29.209C20.6628 29.5716 21.0864 29.8539 21.5554 30.0361C22.0244 30.2184 22.5274 30.2962 23.0295 30.2642C23.5316 30.2323 24.0207 30.0912 24.4628 29.851C24.9048 29.6107 25.2892 29.2769 25.5891 28.873L27.0051 26.966C27.0201 26.9457 27.0342 26.9247 27.0471 26.903L27.3981 26.313C28.6148 24.2699 29.0991 21.8732 28.7711 19.518C28.6743 18.824 28.436 18.1573 28.0711 17.5591C27.7062 16.9609 27.2224 16.444 26.6496 16.0403C26.0769 15.6367 25.4274 15.3549 24.7413 15.2124C24.0552 15.0699 23.3472 15.0698 22.6611 15.212L20.7601 15.606H20.7571C20.7871 14.826 20.9091 13.986 21.1481 13.268C21.4381 12.4 21.8401 11.878 22.2881 11.692C22.4718 11.6153 22.6174 11.4689 22.6931 11.2848C22.7688 11.1007 22.7682 10.8941 22.6916 10.7105C22.6149 10.5268 22.4685 10.3811 22.2844 10.3055C22.1003 10.2298 21.8938 10.2303 21.7101 10.307C20.6581 10.746 20.0601 11.787 19.7251 12.793L19.6791 12.935C19.4328 12.4591 19.1148 12.024 18.7361 11.645C18.2175 11.1258 17.5945 10.7227 16.9083 10.4623C16.2222 10.202 15.4886 10.0904 14.7561 10.135C14.4218 10.1542 14.1062 10.2955 13.8692 10.532C13.6321 10.7685 13.4901 11.0837 13.4701 11.418L13.4711 11.419ZM14.9641 11.626C15.4659 11.6115 15.9654 11.6998 16.4318 11.8856C16.8982 12.0713 17.3216 12.3505 17.6761 12.706C18.0316 13.0605 18.3108 13.4839 18.4965 13.9503C18.6822 14.4167 18.7706 14.9162 18.7561 15.418C18.5747 15.4229 18.3932 15.4145 18.2131 15.393L17.5961 15.265C17.0096 15.09 16.4762 14.7714 16.0441 14.338C15.6886 13.9835 15.4094 13.56 15.2237 13.0936C15.0379 12.6272 14.9496 12.1278 14.9641 11.626ZM17.0331 16.68L17.2351 16.722C17.4751 16.79 17.7191 16.841 17.9651 16.874L18.9351 17.074C19.6376 17.2195 20.3625 17.2195 21.0651 17.074L22.9671 16.68C23.4522 16.5794 23.9529 16.5795 24.438 16.6803C24.9231 16.7811 25.3823 16.9804 25.7873 17.2658C26.1923 17.5512 26.5344 17.9168 26.7923 18.3398C27.0503 18.7628 27.2187 19.2343 27.2871 19.725C27.5679 21.7427 27.1528 23.7959 26.1101 25.546L25.7791 26.103L24.3861 27.979C24.2161 28.208 23.9982 28.3972 23.7476 28.5333C23.497 28.6695 23.2198 28.7494 22.9352 28.7675C22.6505 28.7856 22.3654 28.7414 22.0996 28.6381C21.8338 28.5347 21.5937 28.3746 21.3961 28.169C21.2154 27.981 20.9987 27.8314 20.7588 27.7292C20.5189 27.627 20.2608 27.5744 20.0001 27.5744C19.7393 27.5744 19.4813 27.627 19.2414 27.7292C19.0015 27.8314 18.7847 27.981 18.6041 28.169C18.4065 28.3746 18.1664 28.5347 17.9006 28.6381C17.6348 28.7414 17.3496 28.7856 17.065 28.7675C16.7804 28.7494 16.5031 28.6695 16.2525 28.5333C16.002 28.3972 15.7841 28.208 15.6141 27.979L14.2211 26.103L13.8901 25.546C12.8478 23.7957 12.433 21.7426 12.7141 19.725C12.7825 19.2344 12.9509 18.763 13.2088 18.3401C13.4667 17.9172 13.8087 17.5517 14.2135 17.2662C14.6184 16.9808 15.0775 16.7815 15.5625 16.6806C16.0475 16.5798 16.548 16.5796 17.0331 16.68Z" fill="white"/>
</svg>
