<svg width="41" height="40" viewBox="0 0 41 40" fill="none" xmlns="http://www.w3.org/2000/svg">
<circle cx="20.75" cy="20" r="20" fill="#EBD931"/>
<path d="M26.6569 24.6569C25.7202 25.5935 23.7616 27.5521 22.4138 28.8999C21.6327 29.681 20.3677 29.6814 19.5866 28.9003C18.2623 27.576 16.3416 25.6553 15.3431 24.6569C12.219 21.5327 12.219 16.4673 15.3431 13.3431C18.4673 10.219 23.5327 10.219 26.6569 13.3431C29.781 16.4673 29.781 21.5327 26.6569 24.6569Z" stroke="white" stroke-linecap="round" stroke-linejoin="round"/>
<path d="M24 19C24 20.6569 22.6569 22 21 22C19.3431 22 18 20.6569 18 19C18 17.3431 19.3431 16 21 16C22.6569 16 24 17.3431 24 19Z" stroke="white" stroke-linecap="round" stroke-linejoin="round"/>
</svg>
